<svg xmlns="http://www.w3.org/2000/svg" version="1.1" xmlns:xlink="http://www.w3.org/1999/xlink" xmlns:svgjs="http://svgjs.dev/svgjs" width="1440" height="560" preserveAspectRatio="none" viewBox="0 0 1440 560">
    <g mask="url(&quot;#SvgjsMask1735&quot;)" fill="none">
        <rect width="1440" height="560" x="0" y="0" fill="url(&quot;#SvgjsLinearGradient1736&quot;)"></rect>
        <path d="M1440 0L1435.58 0L1440 143.27z" fill="rgba(255, 255, 255, .1)"></path>
        <path d="M1435.58 0L1440 143.27L1440 153.59L1035.1699999999998 0z" fill="rgba(255, 255, 255, .075)"></path>
        <path d="M1035.17 0L1440 153.59L1440 293.31L510.2400000000001 0z" fill="rgba(255, 255, 255, .05)"></path>
        <path d="M510.24 0L1440 293.31L1440 346.61L254.3 0z" fill="rgba(255, 255, 255, .025)"></path>
        <path d="M0 560L68.01 560L0 540.43z" fill="rgba(0, 0, 0, .1)"></path>
        <path d="M0 540.43L68.01 560L373.95 560L0 507.30999999999995z" fill="rgba(0, 0, 0, .075)"></path>
        <path d="M0 507.31L373.95 560L655.98 560L0 348.44z" fill="rgba(0, 0, 0, .05)"></path>
        <path d="M0 348.44L655.98 560L726.57 560L0 237.18z" fill="rgba(0, 0, 0, .025)"></path>
    </g>
    <defs>
        <mask id="SvgjsMask1735">
            <rect width="1440" height="560" fill="#ffffff"></rect>
        </mask>
        <linearGradient x1="50%" y1="0%" x2="50%" y2="100%" gradientUnits="userSpaceOnUse" id="SvgjsLinearGradient1736">
            <stop stop-color="rgba(14, 42, 71, 1)" offset="0"></stop>
            <stop stop-color="rgba(179, 212, 255, 1)" offset="1"></stop>
        </linearGradient>
    </defs>
</svg>